<?xml version="1.0" encoding="UTF-8"?>
<svg version="1.1" xmlns="http://www.w3.org/2000/svg" width="1024" height="1024">
<path d="M0 0 C1.12768101 0.86488113 2.25666953 1.72805921 3.38671875 2.58984375 C10.04282826 7.69983126 16.38668768 13.01231423 22.5390625 18.72265625 C24.73959446 20.75902154 26.97728703 22.73261853 29.25 24.6875 C33.01200552 27.9571367 36.51276137 31.44223295 40 35 C55.21122204 50.33777131 71.77747537 63.41220194 90 75 C90.65452148 75.41926758 91.30904297 75.83853516 91.98339844 76.27050781 C125.62208811 98.50647941 125.62208811 98.50647941 163.6875 109.5625 C164.68136719 109.64628906 165.67523437 109.73007812 166.69921875 109.81640625 C167.45847656 109.87699219 168.21773437 109.93757812 169 110 C168.3413664 100.01426478 163.35554417 94.86972807 156.19140625 88.35546875 C150.20483262 83.51554397 143.16877299 80.05485094 136.44726562 76.35400391 C128.88185143 72.16827095 121.37065735 67.88402814 113.85107422 63.61669922 C111.9996622 62.5668576 110.14718249 61.51889584 108.29345703 60.47314453 C99.58273752 55.55466921 91.06078239 50.68256233 83.12890625 44.55859375 C81.14848002 43.10870372 79.22672232 42.01952434 77 41 C77 40.34 77 39.68 77 39 C92.7962608 33.99892973 108.33149373 29.64035007 125 29 C125.70044434 28.97276855 126.40088867 28.94553711 127.12255859 28.91748047 C170.62140074 27.46599759 207.59144449 44.70455831 239 74 C239.86367188 74.78632813 240.72734375 75.57265625 241.6171875 76.3828125 C249.43295641 83.79080216 255.53576539 92.13958541 261.61816406 100.99072266 C262.72673973 102.60266219 263.85613839 104.20027245 264.9921875 105.79296875 C288.60252606 140.4176997 296.92065535 187.05201412 289.3125 228.125 C287.51139638 236.94639802 284.95393542 245.50382745 282 254 C281.71769531 254.92167969 281.43539062 255.84335937 281.14453125 256.79296875 C275.68831535 273.72516927 264.43281434 291.66427362 252.265625 304.5546875 C249.03669407 308.03970606 246.10199271 311.74435358 243.140625 315.45703125 C240.88443005 318.13729204 238.57600779 320.62444315 236 323 C235.34 323 234.68 323 234 323 C234 323.66 234 324.32 234 325 C232.01959683 326.78510918 230.04088194 328.43227487 227.9375 330.0625 C227.30336182 330.55419678 226.66922363 331.04589355 226.01586914 331.55249023 C198.11022662 352.78467119 166.98424997 361.83360281 132.6875 365.6875 C130.95318726 365.88508911 130.95318726 365.88508911 129.18383789 366.08666992 C108.11813247 368.3184294 108.11813247 368.3184294 102.9375 365.09375 C102.298125 364.2378125 101.65875 363.381875 101 362.5 C100.29875 361.59121094 99.5975 360.68242188 98.875 359.74609375 C98.25625 358.83988281 97.6375 357.93367188 97 357 C96.46375 356.22785156 95.9275 355.45570313 95.375 354.66015625 C91.64830078 348.97482249 89.75904396 343.8470294 91 337 C94.62366513 329.42204337 101.73984696 325.05479834 108.44140625 320.4609375 C135.98866412 301.5751803 154.48079218 272.42217592 160.86621094 239.80322266 C164.27851963 219.96395351 163.08295976 200.67777145 151.90234375 183.57421875 C149.17282795 179.88068504 147.63325576 177.7988372 143 177 C143.144375 177.83273437 143.28875 178.66546875 143.4375 179.5234375 C144.98377621 190.11113433 145.22467878 200.63183514 145.25 211.3125 C145.25749268 212.41026764 145.25749268 212.41026764 145.26513672 213.5302124 C145.33442633 225.92785594 144.38167031 237.54861675 140 249.25 C139.70456299 250.04921875 139.40912598 250.8484375 139.10473633 251.671875 C135.81395875 260.1326792 131.10486284 267.53402145 126 275 C125.34 275.99 124.68 276.98 124 278 C123.34 278 122.68 278 122 278 C121.73832031 278.58007812 121.47664063 279.16015625 121.20703125 279.7578125 C119.9294858 282.13098755 118.49414053 283.8800843 116.6875 285.875 C114.60603853 288.18631611 112.6439999 290.46477791 110.75 292.9375 C107.28305485 297.12251793 102.85426784 300.29854308 98.63574219 303.68457031 C86.19119744 313.37927309 86.19119744 313.37927309 77 326 C76.59265625 326.65742187 76.1853125 327.31484375 75.765625 327.9921875 C71.51268301 335.7115685 71.80786199 345.46400912 73.625 353.90234375 C75.6235462 359.55002118 78.99917023 363.8614692 82.83203125 368.40625 C85.14747575 371.17643946 87.30340285 374.02562597 89.4375 376.9375 C90.09621094 377.83339844 90.75492188 378.72929688 91.43359375 379.65234375 C94.18183677 383.77128154 94.32981242 387.13526686 94 392 C92.15512666 397.12464816 89.50397003 399.96848171 85 403 C81.4375 404.0625 81.4375 404.0625 78 404 C72.76894726 400.90407083 71.43841994 396.9026223 69.375 391.5 C64.74763784 380.25322231 57.64896853 372.39235492 48 365 C44.27302782 364.11994663 44.27302782 364.11994663 41 364 C41.51395984 368.17956024 43.8064502 370.13838518 46.6875 373.0625 C53.41381212 380.23707226 58.22786369 386.79549896 58.75 396.875 C58.5467364 400.76472623 58.39418127 403.49893758 55.5 406.25 C49.92305729 409.03847136 46.36366255 409.77430325 40.375 407.8125 C35.27203223 404.41436119 33.41790817 398.3915214 31 393 C24.34468669 377.71214444 24.34468669 377.71214444 13 366 C11.67474491 365.63587386 10.3417602 365.29760451 9 365 C10.52514153 372.30727151 13.45276238 378.34876063 16.8984375 384.93359375 C19.55713092 390.25961271 20.72009237 394.03166688 20 400 C16.99935997 403.51294442 15.13008747 404.8150766 10.5625 405.5625 C5.1403255 404.70636718 1.62337779 402.66976001 -2.1875 398.75 C-11.63986555 384.40847986 -12.53798832 368.01216568 -9.69921875 351.40234375 C-7.2384791 339.42857707 -3.37848079 328.21536621 1.25 316.9375 C1.55156006 316.19854492 1.85312012 315.45958984 2.16381836 314.69824219 C3.61615917 311.18129556 5.107352 307.70895824 6.80078125 304.30078125 C18.28385653 281.15640115 26.78432844 248.24152766 19.04296875 222.69140625 C16.23773987 215.44428809 16.23773987 215.44428809 12 209 C10.01967757 208.27697336 8.01977726 207.60410617 6 207 C6.0314209 208.43327637 6.0314209 208.43327637 6.06347656 209.89550781 C6.78465772 246.03714127 6.78465772 246.03714127 2 262 C1.60530518 263.33538818 1.60530518 263.33538818 1.20263672 264.69775391 C-2.81531504 277.98405393 -7.84052492 290.8614438 -12.98242188 303.74536133 C-15.86556853 311.00124672 -18.59174887 318.28060471 -21.0625 325.6875 C-21.33715088 326.50565186 -21.61180176 327.32380371 -21.89477539 328.16674805 C-24.76800636 336.96974117 -26.2938852 344.90271103 -26.0546875 354.1875 C-26.02940362 356.1223888 -26.00468107 358.057285 -25.98046875 359.9921875 C-25.93086926 363.00056825 -25.87481041 366.00854974 -25.80810547 369.01660156 C-25.74732147 371.94859182 -25.71205344 374.88007703 -25.6796875 377.8125 C-25.63930862 379.14414185 -25.63930862 379.14414185 -25.59811401 380.50268555 C-25.54490039 387.20553969 -26.80261754 393.5722919 -31.51876831 398.62817383 C-35.95939266 402.42075539 -39.07282575 403.50131013 -44.80078125 403.390625 C-47 403 -47 403 -49.5625 400.6875 C-51.93102217 394.61172574 -52.29967782 389.21681055 -49.82421875 383.08984375 C-46.97901189 377.74497195 -43.56090668 372.88352916 -40 368 C-39.67 367.01 -39.34 366.02 -39 365 C-46.47437505 365.84778791 -51.02704247 368.36468238 -56 374 C-61.18322169 380.60770987 -63.17753621 387.586668 -64.84765625 395.6796875 C-66.20739317 399.59757354 -67.47270109 400.8867284 -71 403 C-74.12572995 403.82425071 -76.85538554 403.73488273 -80 403 C-83.73383419 399.96625972 -85.19101735 397.5168141 -86.0625 392.8125 C-86.59722504 383.47053906 -81.71743788 375.90857077 -76 369 C-74.86801451 367.50526462 -73.74281625 366.00536103 -72.625 364.5 C-71.75 363.33333333 -70.875 362.16666667 -70 361 C-77.85976635 361.28580969 -83.29691362 364.08746304 -88.7265625 369.82421875 C-94.25784538 376.81632762 -97.72511491 385.10038462 -101.10546875 393.28515625 C-102 395 -102 395 -104 396 C-110.24259681 396.57801822 -110.24259681 396.57801822 -113.375 394.1875 C-116.63573369 389.7980508 -116.5522014 385.24591326 -116 380 C-112.98898813 367.18285489 -102.65098782 358.82539544 -91.99609375 352.10546875 C-87.6387419 349.41491973 -83.26852669 346.74944052 -78.859375 344.14453125 C-72.35970407 340.20823321 -68.45741552 337.37224655 -66 330 C-64.56889539 311.61323497 -66.32977006 294.87357649 -71.15771484 277.10205078 C-72.50221423 272.15039596 -73.74524639 267.17785263 -74.9375 262.1875 C-75.18048828 261.17308838 -75.42347656 260.15867676 -75.67382812 259.11352539 C-78.70072697 245.82563601 -80.53945427 232.30638438 -82.46459961 218.82299805 C-85.80123787 195.8309084 -92.93728721 175.15176628 -111.6875 160.125 C-113.11219895 159.06589254 -114.54462959 158.0165494 -116 157 C-115 154 -115 154 -111.82421875 152.2734375 C-110.44769068 151.63546839 -109.06860337 151.00300285 -107.6875 150.375 C-83.49835676 138.76980411 -69.03535273 119.93056076 -59.75097656 95.22363281 C-58.18359944 90.58264751 -57.38892072 85.87123198 -57 81 C-58.91969546 81.20223207 -60.83588288 81.4379321 -62.75 81.6875 C-63.81734375 81.81511719 -64.8846875 81.94273437 -65.984375 82.07421875 C-72.4156103 84.04857466 -74.78540312 91.10211149 -77.75 96.6875 C-81.58799187 103.72077129 -85.54393629 110.08272228 -91 116 C-91.88171875 116.97324219 -92.7634375 117.94648438 -93.671875 118.94921875 C-105.08536938 131.16490885 -118.7648542 138.46009505 -134 145 C-134.86496094 145.37253906 -135.72992188 145.74507812 -136.62109375 146.12890625 C-143.80327601 148.85681768 -152.68933622 150.68184774 -159.9140625 147.53515625 C-164.88703455 144.8321829 -168.16957277 140.7413215 -171.8125 136.5 C-177.61135694 130.07598 -182.14947699 125.37032245 -191 124 C-192.175625 123.78730469 -193.35125 123.57460938 -194.5625 123.35546875 C-197.70414836 122.83073222 -200.83831434 122.38201607 -204 122 C-204.99 125.96 -204.99 125.96 -206 130 C-204.72125 130.4125 -203.4425 130.825 -202.125 131.25 C-191.85657021 134.69437094 -182.48308688 137.84740675 -176 147 C-176 148.32 -176 149.64 -176 151 C-178.89461219 151.9829057 -181.79058079 152.96143701 -184.6875 153.9375 C-185.50412109 154.21529297 -186.32074219 154.49308594 -187.16210938 154.77929688 C-206.0253345 161.11795147 -228.27574613 158.75732723 -246.33203125 150.48046875 C-251.22537807 147.76512696 -255.60561257 144.44884586 -260 141 C-261.372193 139.95463843 -262.74694724 138.91262471 -264.125 137.875 C-265.06859375 137.15763672 -265.06859375 137.15763672 -266.03125 136.42578125 C-268.17442929 134.8736772 -270.38804022 133.47551293 -272.625 132.0625 C-279.48894439 127.50626105 -284.05653585 122.11115202 -286 114 C-286.60026405 109.11213558 -285.999093 105.88363169 -283.3203125 101.6875 C-279.22122512 96.44842974 -273.72541339 93.04931849 -268.015625 89.78515625 C-263.40240221 85.69941436 -262.43429538 79.13299437 -261.00976562 73.3737793 C-256.22688148 54.08984688 -247.51483546 38.97393887 -234.5859375 24.015625 C-232.98182418 22.14496717 -231.40856579 20.24676863 -229.88671875 18.30859375 C-228.1779139 16.21769589 -226.49842932 14.54403673 -224.4375 12.8125 C-222.07443547 10.80628868 -219.77249895 8.78328099 -217.52734375 6.64453125 C-210.57700821 0.04222429 -203.20332418 -5.13767372 -195 -10 C-194.35337402 -10.38575195 -193.70674805 -10.77150391 -193.04052734 -11.16894531 C-133.96115375 -46.14578297 -54.55791087 -43.37473734 0 0 Z " fill="#F3BF62" transform="translate(527,312)"/>
<path d="M0 0 C1.12446643 4.99801066 2.24535881 9.99680485 3.36303711 14.99633789 C3.74325533 16.69479677 4.12442623 18.39304268 4.5065918 20.09106445 C5.05772283 22.54061554 5.60535207 24.99092794 6.15234375 27.44140625 C6.3221727 28.19273331 6.49200165 28.94406036 6.66697693 29.71815491 C8.45345227 37.75518678 9.18177087 45.4661934 9.1875 53.6875 C9.19974609 54.62400391 9.21199219 55.56050781 9.22460938 56.52539062 C9.22654297 57.42837891 9.22847656 58.33136719 9.23046875 59.26171875 C9.23457764 60.07600342 9.23868652 60.89028809 9.24291992 61.72924805 C8.9661219 64.31668361 8.43880739 65.83251274 7 68 C5.21582031 69.29272461 5.21582031 69.29272461 3.078125 70.40234375 C1.91023438 71.02592773 1.91023438 71.02592773 0.71875 71.66210938 C-0.0959375 72.08298828 -0.910625 72.50386719 -1.75 72.9375 C-3.35231474 73.77354648 -4.95135098 74.61590951 -6.546875 75.46484375 C-7.61180176 76.01579712 -7.61180176 76.01579712 -8.69824219 76.57788086 C-11.20236827 77.99257565 -11.20236827 77.99257565 -13.51293945 80.61865234 C-18.03275956 84.44414322 -23.61682338 83.68695686 -29.24609375 83.63671875 C-31.04929832 83.65228569 -31.04929832 83.65228569 -32.88893127 83.66816711 C-36.7387429 83.69782591 -40.58759528 83.69449763 -44.4375 83.6875 C-77.9090698 83.69756392 -77.9090698 83.69756392 -110.9375 88.625 C-112.09427246 88.88007324 -113.25104492 89.13514648 -114.44287109 89.39794922 C-128.91638546 92.71944787 -143.15952717 97.25410544 -156.70654297 103.35888672 C-159.49548766 104.13850869 -161.24555394 103.81006158 -164 103 C-165 102 -165 102 -165.5625 98.125 C-165.48694559 91.32510312 -161.2041243 86.98159934 -157 82 C-156.3296875 81.19046875 -155.659375 80.3809375 -154.96875 79.546875 C-151.3492943 75.32417669 -147.53762591 71.49496158 -143.28125 67.91796875 C-141.60995003 66.51281758 -139.96792348 65.07264889 -138.34375 63.61328125 C-128.64606932 54.98113827 -117.93500927 47.95921205 -107 41 C-106.26233398 40.52643066 -105.52466797 40.05286133 -104.76464844 39.56494141 C-77.88591626 22.46201042 -46.42270216 12.95468265 -16.31811523 3.08398438 C-15.12516846 2.69275391 -13.93222168 2.30152344 -12.703125 1.8984375 C-11.64770508 1.55474121 -10.59228516 1.21104492 -9.50488281 0.85693359 C-4.13636364 -0.97966507 -4.13636364 -0.97966507 0 0 Z " transform="translate(434,573)"/>
<path d="M0 0 C5.88173703 4.71727192 9.3303737 10.84749289 10.6875 18.25 C11.54874963 29.0925177 9.84377087 38.24151186 3.50390625 47.203125 C-1.07467908 52.36264911 -6.88680268 56.00530733 -13.8125 56.5 C-17.3125 56.25 -17.3125 56.25 -19.25 55.1875 C-20.97694242 52.03836971 -21.29631053 49.64414633 -20.3125 46.25 C-18.45588789 43.32755502 -16.40448846 40.62591952 -14.29296875 37.8828125 C-9.90777974 32.05319239 -8.34063482 26.53214476 -9.3125 19.25 C-10.74700412 15.3684006 -11.9259279 14.46558829 -15.5625 12.4375 C-23.45447954 9.93837315 -29.13543185 11.66146593 -36.3125 15.25 C-39.40692893 17.12679861 -42.38241322 19.12674871 -45.3125 21.25 C-49.15625 19.4609375 -49.15625 19.4609375 -50.5625 17.5625 C-52.0374669 13.0146854 -51.90699351 9.51652966 -49.875 5.1875 C-36.93286102 -9.64861054 -15.84984344 -10.78260725 0 0 Z " fill="#EFF1F3" transform="translate(460.3125,319.75)"/>
<path d="M0 0 C4.29 0.66 8.58 1.32 13 2 C13.36351562 3.30453125 13.72703125 4.6090625 14.1015625 5.953125 C16.68898983 15.0160621 19.38624794 23.26644304 23.86328125 31.57421875 C25.49486078 35.05604311 25.73571623 37.23967261 25 41 C21.23500419 43.5099972 19.45706394 43.61476744 15 43 C10.99577271 38.90192364 8.59167959 34.68145033 6.375 29.4375 C6.07650146 28.74076172 5.77800293 28.04402344 5.47045898 27.32617188 C1.80731704 18.49194991 -0.56537883 9.61144015 0 0 Z "  transform="translate(301,484)"/>
<path d="M0 0 C0.36762451 0.65484375 0.73524902 1.3096875 1.11401367 1.984375 C2.80320974 4.99069284 4.4953328 7.9953536 6.1875 11 C6.76564453 12.02996094 7.34378906 13.05992187 7.93945312 14.12109375 C10.85639666 19.29578453 13.80325577 24.40287085 17.09692383 29.34838867 C18.55164842 32.00889472 18.5449238 34.07103457 18 37 C16.9375 38.875 16.9375 38.875 15 40 C11.6875 40.625 11.6875 40.625 8 40 C2.89151738 35.62747086 -0.41197585 29.33017119 -3.6875 23.5625 C-4.39616211 22.35110352 -4.39616211 22.35110352 -5.11914062 21.11523438 C-12.3125995 8.59478211 -12.3125995 8.59478211 -11.7409668 3.84985352 C-11 2 -11 2 -8.25 0.75 C-5.32500723 0.07500167 -2.97323714 -0.06067831 0 0 Z " transform="translate(340,484)"/>
<path d="M0 0 C0.55429687 0.42152344 1.10859375 0.84304688 1.6796875 1.27734375 C2.40414063 1.82519531 3.12859375 2.37304688 3.875 2.9375 C4.59429687 3.48277344 5.31359375 4.02804687 6.0546875 4.58984375 C7.94357079 6.03964624 7.94357079 6.03964624 10 7 C9.81824219 7.57105469 9.63648438 8.14210938 9.44921875 8.73046875 C6.47564457 18.32215162 4.20649785 28.05925309 2.625 37.9765625 C1.87373659 40.40877779 1.01108514 41.45784577 -1 43 C-5.07794425 43.42478586 -6.53076119 43.31282587 -10 41 C-11.85122193 27.62450461 -9.37910713 12.29505302 -1.171875 1.40625 C-0.78515625 0.9421875 -0.3984375 0.478125 0 0 Z " transform="translate(256,464)"/>
<path d="M0 0 C3.96435532 0.55316586 7.3162378 1.45620868 11 3 C11.07347656 4.86591797 11.07347656 4.86591797 11.1484375 6.76953125 C11.56238223 17.60201206 11.56238223 17.60201206 13.125 28.3125 C13.9139393 32.16754433 14.33542933 35.18448764 13 39 C11.375 40.9375 11.375 40.9375 9 42 C5.4375 42.125 5.4375 42.125 2 41 C-2.39426968 33.82269286 -2.18050052 25.20339586 -2.1875 17 C-2.19974609 16.24460937 -2.21199219 15.48921875 -2.22460938 14.7109375 C-2.23807244 9.48726874 -1.44380095 5.02191636 0 0 Z " transform="translate(277,478)"/>
<path d="M0 0 C7.3521343 2.94085372 11.74248228 10.01656902 16.5 16 C17.19351562 16.81597656 17.88703125 17.63195312 18.6015625 18.47265625 C22.3880005 23.01482365 24.37274627 26.01907455 24.5 32 C21.99328629 33.79050979 20.23938878 34.9610848 17.125 35.125 C13.00765456 33.36042338 10.46653037 30.28774703 7.5 27 C6.86191406 26.30648438 6.22382813 25.61296875 5.56640625 24.8984375 C2.70799204 21.72506289 0.27886728 18.91350802 -1.5 15 C-2.16 15 -2.82 15 -3.5 15 C-8.45 10.05 -8.45 10.05 -8.625 6.375 C-6.79183274 2.50498024 -4.44114397 0 0 0 Z "  transform="translate(364.5,475)"/>
<path d="M0 0 C3.0625 2 3.0625 2 5 4 C3.96763886 10.87011756 0.22520177 16.47409529 -4.3125 21.625 C-8.2457778 23.63737469 -11.67921287 23.88290949 -16 23 C-19.0625 21 -19.0625 21 -21 18 C-21.72900793 13.89104623 -21.95592869 11.64106529 -19.85546875 8.03515625 C-14.61427043 1.49403011 -8.38708956 -1.46465718 0 0 Z " fill="#EAEEF5" transform="translate(342,372)"/>
<path d="M0 0 C-0.3125 2.375 -0.3125 2.375 -1 5 C-1.99 5.66 -2.98 6.32 -4 7 C-4.33 5.68 -4.66 4.36 -5 3 C-6.44098611 3.76429661 -7.87766054 4.53672555 -9.3125 5.3125 C-10.11300781 5.74175781 -10.91351563 6.17101562 -11.73828125 6.61328125 C-13.83787272 7.90059554 -15.35447721 9.18406708 -17 11 C-16.43997584 7.46340908 -15.32225676 6.04440308 -12.5625 3.8125 C-11.94503906 3.30332031 -11.32757813 2.79414062 -10.69140625 2.26953125 C-7.14616093 -0.39144965 -4.36286967 -0.08079388 0 0 Z " transform="translate(488,677)"/>
<path d="M0 0 C1.32 0.33 2.64 0.66 4 1 C-2.56276111 5.83313622 -9.17148431 10.5488194 -16 15 C-16.66 14.67 -17.32 14.34 -18 14 C-17 13 -16 12 -15 11 C-14.54625 10.484375 -14.0925 9.96875 -13.625 9.4375 C-10.8512966 6.9838393 -7.46637258 6.15545753 -4 5 C-4 4.34 -4 3.68 -4 3 C-3.01 2.67 -2.02 2.34 -1 2 C-0.67 1.34 -0.34 0.68 0 0 Z " fill="#E8EBEA" transform="translate(322,614)"/>
<path d="M0 0 C0.66 0.33 1.32 0.66 2 1 C-2.66666667 5.66666667 -7.33333333 10.33333333 -12 15 C-12.99 14.67 -13.98 14.34 -15 14 C-14.0479279 12.99403703 -13.08812654 11.99538437 -12.125 11 C-11.32449219 10.1646875 -11.32449219 10.1646875 -10.5078125 9.3125 C-9 8 -9 8 -7 8 C-7 7.34 -7 6.68 -7 6 C-5.46875 4.4921875 -5.46875 4.4921875 -3.5 2.875 C-2.8503125 2.33617187 -2.200625 1.79734375 -1.53125 1.2421875 C-0.77328125 0.62730469 -0.77328125 0.62730469 0 0 Z "  transform="translate(768,629)"/>
<path d="M0 0 C-2.05811498 5.55691045 -7.38512193 8.6275891 -12 12 C-12.66 11.67 -13.32 11.34 -14 11 C-3.32352941 0 -3.32352941 0 0 0 Z " transform="translate(444,447)"/>
<path d="M0 0 C-2.18614424 2.18614424 -3.53879949 2.68256535 -6.4375 3.625 C-7.21996094 3.88539063 -8.00242187 4.14578125 -8.80859375 4.4140625 C-11 5 -11 5 -14 5 C-14 4.34 -14 3.68 -14 3 C-4.58997722 -1.77676538 -4.58997722 -1.77676538 0 0 Z " fill="#F2F3F4" transform="translate(618,346)"/>
<path d="M0 0 C0 0.66 0 1.32 0 2 C-0.66 2 -1.32 2 -2 2 C-2.2475 2.5775 -2.495 3.155 -2.75 3.75 C-4.19393699 6.34908658 -5.73521987 8.07836838 -8 10 C-8.99 10 -9.98 10 -11 10 C-9.63088196 6.8510285 -8.1247864 4.9521513 -5.5 2.75 C-4.8915625 2.22921875 -4.283125 1.7084375 -3.65625 1.171875 C-2 0 -2 0 0 0 Z " fill="#EAEBEF" transform="translate(620,621)"/>
<path d="M0 0 C0.33 0.99 0.66 1.98 1 3 C-0.36328125 5.41015625 -0.36328125 5.41015625 -2.3125 8.0625 C-3.26576172 9.37927734 -3.26576172 9.37927734 -4.23828125 10.72265625 C-6 13 -6 13 -8 15 C-7.43928208 11.04693863 -6.27794197 8.51358993 -4 5.25 C-3.46375 4.47140625 -2.9275 3.6928125 -2.375 2.890625 C-1 1 -1 1 0 0 Z " fill="#EDEEED" transform="translate(276,653)"/>
<path d="M0 0 C1.4391134 0.28359887 2.87625518 0.57721399 4.3125 0.875 C5.11300781 1.03742188 5.91351562 1.19984375 6.73828125 1.3671875 C9 2 9 2 12 4 C7.48281619 5.36884358 4.41225737 4.47075246 0 3 C0 2.01 0 1.02 0 0 Z " transform="translate(676,419)"/>
<path d="M0 0 C0.66 0.99 1.32 1.98 2 3 C1.00200236 6.99199058 -0.55799862 8.82006579 -4 11 C-3.48964169 6.6109185 -2.47785723 3.66291938 0 0 Z " fill="#E8E8EC" transform="translate(518,605)"/>
<path d="M0 0 C4.09621053 2.28905883 7.53415091 4.85655548 11 8 C11 8.66 11 9.32 11 10 C8 10 8 10 5.375 7.6875 C3 5 3 5 2 2 C1.34 2 0.68 2 0 2 C0 1.34 0 0.68 0 0 Z " transform="translate(262,449)"/>
<path d="M0 0 C0.33 0.66 0.66 1.32 1 2 C-0.21484375 4.6015625 -0.21484375 4.6015625 -1.9375 7.625 C-2.78634766 9.12933594 -2.78634766 9.12933594 -3.65234375 10.6640625 C-4.09707031 11.43492187 -4.54179687 12.20578125 -5 13 C-6 10 -6 10 -4.75 6.5 C-3.32677386 3.65354771 -2.41672888 1.95639957 0 0 Z " fill="#F3F3F3" transform="translate(254,464)"/>
<path d="M0 0 C2 0 2 0 4.5625 2.25 C6.76715929 4.73730791 7.64403955 5.79635595 8 9 C3.7257442 7.4169423 1.73468206 4.49431596 -1 1 C-0.67 0.67 -0.34 0.34 0 0 Z " fill="#383B3A" transform="translate(358,449)"/>
<path d="M0 0 C0.99 0 1.98 0 3 0 C1.87548273 2.9719385 0.77706209 5.33440687 -1 8 C-1.66 7.67 -2.32 7.34 -3 7 C-1.125 1.125 -1.125 1.125 0 0 Z " fill="#EDEDF1" transform="translate(480,685)"/>
<path d="M0 0 C-1.10789408 3.32368224 -1.48436217 3.61563093 -4.375 5.25 C-5.28378906 5.78367187 -5.28378906 5.78367187 -6.2109375 6.328125 C-8 7 -8 7 -11 6 C-9.54550599 4.9944239 -8.08627557 3.99569565 -6.625 3 C-5.40683594 2.1646875 -5.40683594 2.1646875 -4.1640625 1.3125 C-2 0 -2 0 0 0 Z " fill="#EFF1F0" transform="translate(340,605)"/>
<path d="M0 0 C-2.6598561 3.44216672 -5.90288286 3.99504674 -10 5 C-8.20177069 -0.39468792 -5.09771267 -0.22656501 0 0 Z " transform="translate(352,600)"/>
<path d="M0 0 C4.9723422 1.49170266 9.41845739 3.60457417 14 6 C13.67 6.66 13.34 7.32 13 8 C10.03216871 6.54331217 7.13584687 4.98767914 4.25 3.375 C3.45078125 2.92898438 2.6515625 2.48296875 1.828125 2.0234375 C1.22484375 1.68570312 0.6215625 1.34796875 0 1 C0 0.67 0 0.34 0 0 Z " fill="#F3BF62" transform="translate(649,407)"/>
<path d="M0 0 C0.90105469 0.00902344 1.80210937 0.01804687 2.73046875 0.02734375 C3.41753906 0.03894531 4.10460937 0.05054688 4.8125 0.0625 C1.77724514 2.08600324 0.61823798 2.38374018 -2.875 2.6875 C-3.68324219 2.76226562 -4.49148438 2.83703125 -5.32421875 2.9140625 C-5.93910156 2.96304687 -6.55398438 3.01203125 -7.1875 3.0625 C-7.5175 2.4025 -7.8475 1.7425 -8.1875 1.0625 C-5.17259443 0.05753148 -3.14568308 -0.04085303 0 0 Z " fill="#EBEDEC" transform="translate(385.1875,278.9375)"/>
<path d="M0 0 C1.32 0.33 2.64 0.66 4 1 C1.36 2.98 -1.28 4.96 -4 7 C-4.66 6.67 -5.32 6.34 -6 6 C-5 5 -4 4 -3 3 C-2.525625 2.4225 -2.05125 1.845 -1.5625 1.25 C-1.046875 0.8375 -0.53125 0.425 0 0 Z " transform="translate(310,622)"/>
<path d="M0 0 C3.87302138 1.14430177 7.00263439 2.23320098 10 5 C10 5.66 10 6.32 10 7 C6.4124787 5.66749209 3.1635377 4.169283 0 2 C0 1.34 0 0.68 0 0 Z " transform="translate(651,379)"/>
<path d="M0 0 C1.44096586 0.42594588 2.87768712 0.86626633 4.3125 1.3125 C5.11300781 1.55613281 5.91351563 1.79976563 6.73828125 2.05078125 C9 3 9 3 12 6 C7.545 5.01 7.545 5.01 3 4 C3 3.34 3 2.68 3 2 C2.01 1.67 1.02 1.34 0 1 C0 0.67 0 0.34 0 0 Z " fill="#F2F0F4" transform="translate(276,460)"/>
<path d="M0 0 C0.99 1.32 1.98 2.64 3 4 C1.68 5.65 0.36 7.3 -1 9 C-1.99 8.67 -2.98 8.34 -4 8 C-3.2884375 7.13375 -3.2884375 7.13375 -2.5625 6.25 C-1.0515133 4.07417916 -0.45963849 2.57397552 0 0 Z " transform="translate(264,393)"/>
<path d="M0 0 C2.125 0.375 2.125 0.375 4 1 C1.47211993 3.79872437 -0.20411134 5.45773019 -4 6 C-2.84826645 3.53199953 -1.95216435 1.95216435 0 0 Z " transform="translate(422,651)"/>
<path d="M0 0 C0.66 0 1.32 0 2 0 C2 2.64 2 5.28 2 8 C0.02 8.99 0.02 8.99 -2 10 C-1.34 6.7 -0.68 3.4 0 0 Z " fill="#242422" transform="translate(545,584)"/>
<path d="M0 0 C0 0.66 0 1.32 0 2 C-2.97 3.65 -5.94 5.3 -9 7 C-9 6.01 -9 5.02 -9 4 C-2.25 0 -2.25 0 0 0 Z " fill="#EDEFEF" transform="translate(330,302)"/>
<path d="M0 0 C2.97 0.495 2.97 0.495 6 1 C6 1.66 6 2.32 6 3 C6.99 2.67 7.98 2.34 9 2 C9.33 2.99 9.66 3.98 10 5 C5.2482602 4.56802365 3.07999946 3.67230705 0 0 Z " fill="#EDEFF0" transform="translate(484,287)"/>
<path d="M0 0 C1.04293785 3.38954801 1.30754089 6.46327974 1 10 C0.01 10.66 -0.98 11.32 -2 12 C-1.85831863 10.56208484 -1.71148957 9.1246763 -1.5625 7.6875 C-1.48128906 6.88699219 -1.40007813 6.08648438 -1.31640625 5.26171875 C-1 3 -1 3 0 0 Z " fill="#343434" transform="translate(521,648)"/>
<path d="M0 0 C0.66 0 1.32 0 2 0 C2.125 6.75 2.125 6.75 1 9 C0.34 9 -0.32 9 -1 9 C-0.67 6.03 -0.34 3.06 0 0 Z " fill="#F0EEF0" transform="translate(245,482)"/>
<path d="M0 0 C0.66 0.66 1.32 1.32 2 2 C-0.31 3.32 -2.62 4.64 -5 6 C-4.75 4.125 -4.75 4.125 -4 2 C-1.9375 0.75 -1.9375 0.75 0 0 Z " fill="#F3F4F3" transform="translate(430,454)"/>
<path d="M0 0 C0.33 0.66 0.66 1.32 1 2 C1.99 2 2.98 2 4 2 C4 2.66 4 3.32 4 4 C0.7 3.67 -2.6 3.34 -6 3 C-3 1 -3 1 0 0 Z " fill="#D7D9D8" transform="translate(450,276)"/>
<path d="M0 0 C0.99 0.33 1.98 0.66 3 1 C1.68 3.31 0.36 5.62 -1 8 C-1.66 8 -2.32 8 -3 8 C-2.45276317 4.62537285 -1.9451 2.91765 0 0 Z " fill="#161616" transform="translate(272,661)"/>
<path d="M0 0 C-1.39332574 3.36720387 -2.9789286 4.9859524 -6 7 C-6.33 6.01 -6.66 5.02 -7 4 C-6.01 4 -5.02 4 -4 4 C-4 3.01 -4 2.02 -4 1 C-2 0 -2 0 0 0 Z " fill="#232423" transform="translate(768,628)"/>
<path d="M0 0 C0.33 0.66 0.66 1.32 1 2 C0.22265625 3.7265625 0.22265625 3.7265625 -0.9375 5.625 C-1.618125 6.73875 -2.29875 7.8525 -3 9 C-3.66 9 -4.32 9 -5 9 C-3.375 2.25 -3.375 2.25 0 0 Z " transform="translate(675,586)"/>
<path d="M0 0 C0.99 0 1.98 0 3 0 C2.67 1.98 2.34 3.96 2 6 C1.34 6 0.68 6 0 6 C-0.38218767 4.34385343 -0.71395102 2.67542976 -1 1 C-0.67 0.67 -0.34 0.34 0 0 Z " fill="#E9EBE8" transform="translate(677,577)"/>
<path d="M0 0 C2.97 0.495 2.97 0.495 6 1 C5.01 1.33 4.02 1.66 3 2 C2.67 2.99 2.34 3.98 2 5 C1.01 5 0.02 5 -1 5 C-0.67 3.35 -0.34 1.7 0 0 Z " transform="translate(277,478)"/>
<path d="M0 0 C1.32 0.66 2.64 1.32 4 2 C2 4 0 6 -2 8 C-2.6875 6.25 -2.6875 6.25 -3 4 C-1.5625 1.75 -1.5625 1.75 0 0 Z " fill="#E0E2E4" transform="translate(413,322)"/>
<path d="M0 0 C2.0625 0.4375 2.0625 0.4375 4 1 C0.6659053 3.19097652 -2.04179141 4.43454163 -6 5 C-5.195625 4.360625 -4.39125 3.72125 -3.5625 3.0625 C-1.7249496 1.59396498 -1.7249496 1.59396498 0 0 Z "  transform="translate(328,304)"/>
<path d="M0 0 C0.66 0 1.32 0 2 0 C3.0326802 2.78823655 3.04509293 3.8677274 2.0625 6.75 C1.711875 7.4925 1.36125 8.235 1 9 C0.67 9 0.34 9 0 9 C0 6.03 0 3.06 0 0 Z " fill="#D6D7DD" transform="translate(500,656)"/>
<path d="M0 0 C0.66 0 1.32 0 2 0 C1.43628586 3.26954202 0.50037734 4.82575883 -2 7 C-2.33 6.01 -2.66 5.02 -3 4 C-1.6875 1.8125 -1.6875 1.8125 0 0 Z "  transform="translate(793,597)"/>
<path d="M0 0 C0.33 0.99 0.66 1.98 1 3 C-0.65 4.65 -2.3 6.3 -4 8 C-4.66 7.67 -5.32 7.34 -6 7 C-4.02 4.69 -2.04 2.38 0 0 Z " fill="#1F1F1E" transform="translate(625,640)"/>
<path d="M0 0 C0.66 0 1.32 0 2 0 C0.60667426 3.36720387 -0.9789286 4.9859524 -4 7 C-4 6.01 -4 5.02 -4 4 C-3.34 4 -2.68 4 -2 4 C-1.34 2.68 -0.68 1.36 0 0 Z " fill="#F0EFEB" transform="translate(651,617)"/>
<path d="M0 0 C0.66 0 1.32 0 2 0 C1.34 2.97 0.68 5.94 0 9 C-0.99 9 -1.98 9 -3 9 C-2.01 6.03 -1.02 3.06 0 0 Z " transform="translate(540,596)"/>
<path d="M0 0 C1.65 0 3.3 0 5 0 C4.34 1.32 3.68 2.64 3 4 C1.68 3.67 0.36 3.34 -1 3 C-0.67 2.01 -0.34 1.02 0 0 Z " transform="translate(333,468)"/>
<path d="M0 0 C5.53846154 0.49230769 5.53846154 0.49230769 7.875 3.0625 C8.431875 4.0215625 8.431875 4.0215625 9 5 C5.22454612 3.90931332 2.52956528 3.0916909 0 0 Z " transform="translate(720,353)"/>
<path d="M0 0 C3.82946843 1.45255699 5.12050295 3.42895561 7 7 C4.08482708 5.92598892 2.22189824 5.22189824 0 3 C0 2.01 0 1.02 0 0 Z "  transform="translate(535,316)"/>
<path d="M0 0 C0 0.99 0 1.98 0 3 C-1.8125 4.0625 -1.8125 4.0625 -4 5 C-4.99 4.67 -5.98 4.34 -7 4 C-6.34 4 -5.68 4 -5 4 C-4.67 3.01 -4.34 2.02 -4 1 C-1.9375 0.3125 -1.9375 0.3125 0 0 Z " transform="translate(346,292)"/>
</svg>
